<svg id="Layer_1" data-name="Layer 1" xmlns="http://www.w3.org/2000/svg" viewBox="0 0 242.16 185.42"><defs><style>.cls-1{fill:#27e488;}.cls-2{fill:#043868;}</style></defs><title>Untitled-4</title><path class="cls-1" d="M112,244.42,101.2,206l113.88-90.56c43.9-29.57,68.12,13.48,53.8,53.49-20,55.94-55.6,56.92-55.6,56.92-32.23-.17-34.41-32.71-34.41-32.71Zm-4.84.58L96.7,206,30.84,164l11.61,39.89Zm75.67-30.48c-6.51-8.79-6.19-14.67-6.19-14.67l-8.59,6.35Zm64.38-113.36c-15.05-2.41-33.75,9.11-33.75,9.11L98.73,202,32.61,160.11,143.43,71.17c27.53-22.09,45.68-5.81,45.68-5.81l11.31,7.08c11.54-11.9,27.05-4.1,30,.08a16.3,16.3,0,0,1,.47,19ZM203.65,76.64l13.18,7.42C220.7,76.11,209.07,71,203.65,76.64Zm-14.75,35L145.09,86.79l-19.62,15.6,43.81,24.84Z" transform="translate(-30.84 -59.58)"/><path class="cls-2" d="M258,112.86c17.25,12.56,17.21,46.35-.09,75.33A89.55,89.55,0,0,1,244.05,206v0c-.1.1-.65.66-1.58,1.49-10,9.38-21.14,14.78-31.19,15.14l-.18,0v0A25.08,25.08,0,0,1,195.25,218c-17.25-12.56-17.21-46.35.09-75.33S240.73,100.31,258,112.86ZM196,176c2.18-2.17,7.28-7.15,12.77-11.66a95.17,95.17,0,0,1,7.45-21c-1.61-2.76-4-6.46-5-8-1.89,1-7,4.18-12.56,11.73a65.87,65.87,0,0,0-6.09,20.55A20.52,20.52,0,0,0,196,176Zm25.54,31.6c7.58-1.29,15.28-8.33,16.64-9.63,1-1.57,5.75-9.52,6.87-16.73-1.12-1.42-4.11-5.1-8.14-9.47a158.46,158.46,0,0,1-16.36,8.59c-1.32,3.58-4.72,12.68-7.15,17.73A34.22,34.22,0,0,0,221.57,207.64Zm-10-76.23a65.75,65.75,0,0,1,9.41-12.17c-8,5.16-15.74,13-22.08,23C204.64,135.22,209.69,132.3,211.52,131.41Zm29.16-15.9a26.39,26.39,0,0,1,5.52-2.84A29.84,29.84,0,0,0,232,113.93,23,23,0,0,1,240.68,115.51Zm-5.39,19.7c-6.73,2.12-14.23,7.34-16.24,8.79a89.5,89.5,0,0,0-7.22,20.18c1.3,1.85,5.67,8,8.85,12.32a153.57,153.57,0,0,0,16-8.43,156.85,156.85,0,0,0,7.4-20.58A46.43,46.43,0,0,0,235.29,135.21Zm18.44-19.82a21.1,21.1,0,0,0-12.2,3.45c-.85,3.52-2.76,10.18-3.56,12.95a47.93,47.93,0,0,1,8.93,12.45A45.73,45.73,0,0,1,259,141.6a50.33,50.33,0,0,0,3.3-17.7,25.11,25.11,0,0,0-6.58-7.24C255.06,116.2,254.4,115.78,253.73,115.39ZM265,129.59a58.86,58.86,0,0,1-3.61,13.5,45.76,45.76,0,0,1,.75,18.78,16.33,16.33,0,0,1,3.11,1.8C268.55,151.06,268.47,138.93,265,129.59Zm-1.08,38.63a15.64,15.64,0,0,0-3.41-2.23,81.7,81.7,0,0,1-12.4,15.1c-1.19,6.79-4.83,13.74-6.77,17.07a37.37,37.37,0,0,1,3.42,2.88,85.25,85.25,0,0,0,10.84-14.49A89.23,89.23,0,0,0,263.94,168.22Zm-51.67,50.32c.7-.1,1.39-.21,2.08-.34a43.07,43.07,0,0,0,4.32-7.27,34.85,34.85,0,0,1-8.17-9.86c-2.21.68-7.95,2.05-13.13.15a92,92,0,0,0-4.57,8.39,24.31,24.31,0,0,0,4.71,4.58A23.35,23.35,0,0,0,212.27,218.54ZM191,207c1.62-3.25,3.36-6.18,4.38-7.82-1-2.54-2.94-9.31-1.49-19.08a22.89,22.89,0,0,1-4-8.06,33.72,33.72,0,0,0-4,6.63C184.78,189.7,186.47,199.73,191,207Z" transform="translate(-30.84 -59.58)"/></svg>