<?xml version="1.0" encoding="UTF-8" standalone="no"?>
<svg xmlns="http://www.w3.org/2000/svg" viewBox="0 0 32.656 31.009" version="1.1" height="100%" width="100%" preserveAspectRatio="none">
 <g transform="translate(-3.259789,-3.1163292)">
  <g fill="#FFF">
   <path d="m3.2598,5.0625,0,29.062,24.188,0,0-29.062-24.188,0zm2.0938,2.0625,20,0,0,24.938-20,0,0-24.938z"/>
   <rect height="5.9578" width="2.0362" y="3.1163" x="8.3815"/>
   <rect height="5.9578" width="2.0362" y="3.1163" x="12.303"/>
   <rect height="5.9578" width="2.0362" y="3.1163" x="16.375"/>
   <rect height="5.9578" width="2.0362" y="3.1163" x="20.372"/>
   <rect height="1.0558" width="14.027" y="13.071" x="8.3815"/>
   <rect height="1.0558" width="14.027" y="17.068" x="8.3815"/>
   <rect height="1.0558" width="14.027" y="21.065" x="8.3815"/>
   <rect height="1.0558" width="9.4268" y="25.062" x="8.3815"/>
   <path d="M31.385,8.9688,29.322,11l4.5625,4.5625,2.0312-2.0625-4.5312-4.5312zm-2.9375,2.9688-10.812,10.781,4.5312,4.5625,10.812-10.812-4.5312-4.5312z"/>
   <path d="m21.265,28.172-5.1365,0.60395,0.60395-5.1365,2.2663,2.2663,2.2663,2.2663z"/>
  </g>
 </g>
</svg>