<?xml version="1.0" encoding="UTF-8" standalone="no"?>
<svg xmlns="http://www.w3.org/2000/svg" viewBox="0 0 185.1 230.07" version="1.1" height="100%" width="100%" preserveAspectRatio="none">
 <g transform="translate(-5.0393443,-2.310435)">
  <path d="m5.847,210.71c0.53368,10.597,9.49,20.87,20.224,20.87h142.03c11.08,0,21.23-8.92,21.23-20v-188.47c0-11.08-10.15-20-21.23-20h-142.03c-11.08,0-20.224,8.92-20.224,20v186.57c0,0.34625-0.01722,0.68943,0,1.0312zm8.4425-2.5362,0-86.472,48.986,0c1.3925,18.168,15.766,32.215,34.291,32.215,18.526,0,32.87-14.047,34.26-32.215h49.091v86.472c0,8.31-6.69,15-15,15h-26.667v-22.671c0-5.54-5.4519-12.344-10.992-12.344h-60.593c-5.54,0-11.803,6.8044-11.803,12.344v22.671h-26.573c-8.31,0-15-6.69-15-15zm0-94.924,0-86.658c0-8.31,6.69-15,15-15h26.587v22.815c0,5.54,5.4372,12.124,10.977,12.124h60.557c5.54,0,11.792-6.5836,11.792-12.124v-22.815h26.716c8.31,0,15,6.69,15,15v86.658h-49.091c-1.45-18.111-15.78-32.507-34.263-32.507s-32.839,14.396-34.291,32.507h-48.986zm49.907,109.92,0-21.515c0-2.77,2.23-5,5-5h56.75c2.77,0,5,2.23,5,5v21.515h-66.75zm-0.03105-189.92,0-21.659,66.713,0,0,21.659c0,2.77-2.23,5-5,5h-56.713c-2.77,0-5-2.23-5-5zm7.5415,88.451,51.788,0c-1.3708,14.783-10.785,24.02-25.928,24.02s-24.485-9.2372-25.859-24.02zm0.0312-8.4524c1.4331-14.725,10.728-24.065,25.828-24.065s24.467,9.3401,25.897,24.065h-51.725z" stroke="#FFF" stroke-width="1.6" fill="#FFF"/>
 </g>
</svg>