<?xml version="1.0" encoding="UTF-8" standalone="no"?>
<svg xmlns="http://www.w3.org/2000/svg" viewBox="0 0 41.849 41.537" width="100%" height="100%" version="1.1" preserveAspectRatio="none">
 <g transform="translate(-0.72070777,-0.58058759)">
  <path fill="#FFF" d="m18.439,0.58059c-9.7948,0-17.719,7.9552-17.719,17.75s7.924,17.719,17.719,17.719c3.2888,0,6.3575-0.91117,9-2.4688,0.0886,0.10315,0.15207,0.21457,0.25,0.3125l6.6875,6.6875c1.9587,1.9587,5.0335,2.0602,6.875,0.21875,1.8415-1.8415,1.7399-4.9163-0.21875-6.875l-6.6875-6.6562c-0.1277-0.1277-0.26983-0.23192-0.40625-0.34375,1.4219-2.5482,2.25-5.4676,2.25-8.5938,0-9.7948-7.9552-17.75-17.75-17.75zm0,5.7813c6.6085,0,11.969,5.3602,11.969,11.969,0,6.6085-5.3602,11.938-11.969,11.938-6.6085,0-11.969-5.329-11.969-11.938,0-6.6085,5.3602-11.969,11.969-11.969z"/>
 </g>
</svg>