<?xml version="1.0" encoding="UTF-8" standalone="no"?><svg xmlns="http://www.w3.org/2000/svg" viewBox="0 0 9 12" version="1.1" width="100%" height="100%" preserveAspectRatio="none">
 <title>Sensible World of Soccer - SWOS</title>
 <g id="layer1" transform="translate(2,0)">
  <rect height="1" width="1" y="1" x="0" fill="#000"/>
  <rect height="1" width="1" y="2" x="0" fill="#000"/>
  <rect height="1" width="1" y="1" x="1" fill="#000"/>
  <rect height="1" width="1" y="0" x="1" fill="#000"/>
  <rect height="1" width="1" y="0" x="2" fill="#000"/>
  <rect height="1" width="1" y="0" x="3" fill="#000"/>
  <rect height="1" width="1" y="1" x="2" fill="#000"/>
  <rect height="1" width="1" y="1" x="3" fill="#000"/>
  <rect height="1" width="1" y="1" x="4" fill="#000"/>
  <rect height="1" width="1" y="2" x="4" fill="#000"/>
  <rect height="1" width="1" y="2" x="3" fill="#aa4100"/>
  <rect height="1" width="1" y="2" x="2" fill="#ff7d14"/>
  <rect height="1" width="1" y="2" x="1" fill="#ff7d14"/>
  <rect height="1" width="1" y="3" x="2" fill="#ff7d14"/>
  <rect height="1" width="1" y="3" x="1" fill="#FFF"/>
  <rect height="1" width="1" y="3" x="3" fill="#969696"/>
  <rect height="1" width="1" y="4" x="2" fill="#000"/>
  <rect height="1" width="1" y="4" x="1" fill="#ff7d14"/>
  <rect height="1" width="1" y="4" x="3" fill="#aa4100"/>
  <rect height="1" width="1" y="5" x="2" fill="#398d13"/>
  <rect height="1" width="1" y="6" x="2" fill="#398d13"/>
  <rect height="1" width="1" y="5" x="3" fill="#398d13"/>
  <rect height="1" width="1" y="5" x="4" fill="#398d13"/>
  <rect height="1" width="1" y="4" x="4" fill="#398d13"/>
  <rect height="1" width="1" y="6" x="4" fill="#398d13"/>
  <rect height="1" width="1" y="6" x="3" fill="#398d13"/>
  <rect height="1" width="1" y="6" x="1" fill="#398d13"/>
  <rect height="1" width="1" y="5" x="1" fill="#398d13"/>
  <rect height="1" width="1" y="5" x="0" fill="#398d13"/>
  <rect height="1" width="1" y="6" x="0" fill="#398d13"/>
  <rect height="1" width="1" y="4" x="0" fill="#398d13"/>
  <rect height="1" width="1" y="4" x="5" fill="#398d13"/>
  <rect height="1" width="1" y="5" x="5" fill="#398d13"/>
  <rect height="1" width="1" y="4" x="-1" fill="#398d13"/>
  <rect height="1" width="1" y="5" x="-1" fill="#398d13"/>
  <rect height="1" width="1" y="5" x="6" fill="#398d13"/>
  <rect height="1" width="1" y="5" x="-2" fill="#398d13"/>
  <rect height="1" width="1" y="6" x="-2" fill="#398d13"/>
  <rect height="1" width="1" y="6" x="6" fill="#398d13"/>
  <rect height="1" width="1" y="7" x="-2" fill="#ff7d14"/>
  <rect height="1" width="1" y="7" x="6" fill="#aa4100"/>
  <rect height="1" width="1" y="7" x="0" fill="#1c1b2d"/>
  <rect height="1" width="1" y="8" x="0" fill="#1c1b2d"/>
  <rect height="1" width="1" y="7" x="1" fill="#1c1b2d"/>
  <rect height="1" width="1" y="7" x="2" fill="#1c1b2d"/>
  <rect height="1" width="1" y="7" x="3" fill="#1c1b2d"/>
  <rect height="1" width="1" y="7" x="4" fill="#1c1b2d"/>
  <rect height="1" width="1" y="8" x="1" fill="#1c1b2d"/>
  <rect height="1" width="1" y="8" x="2" fill="#1c1b2d"/>
  <rect height="1" width="1" y="8" x="3" fill="#1c1b2d"/>
  <rect height="1" width="1" y="8" x="4" fill="#1c1b2d"/>
  <rect height="1" width="1" y="9" x="0" fill="#ff7d14"/>
  <rect height="1" width="1" y="9" x="1" fill="#aa4100"/>
  <rect height="1" width="1" y="9" x="4" fill="#aa4100"/>
  <rect height="1" width="1" y="9" x="3" fill="#ff7d14"/>
  <rect height="1" width="1" y="10" x="0" fill="#398d13"/>
  <rect height="1" width="1" y="10" x="1" fill="#398d13"/>
  <rect height="1" width="1" y="10" x="3" fill="#398d13"/>
  <rect height="1" width="1" y="10" x="4" fill="#398d13"/>
  <rect height="1" width="1" y="11" x="0" fill="#000"/>
  <rect height="1" width="1" y="11" x="1" fill="#000"/>
  <rect height="1" width="1" y="11" x="3" fill="#000"/>
  <rect height="1" width="1" y="11" x="4" fill="#000"/>
 </g>
</svg>